<?xml version="1.0" encoding="UTF-8" standalone="no"?>
<!-- Created with Inkscape (http://www.inkscape.org/) -->

<svg
   xmlns:dc="http://purl.org/dc/elements/1.1/"
   xmlns:cc="http://creativecommons.org/ns#"
   xmlns:rdf="http://www.w3.org/1999/02/22-rdf-syntax-ns#"
   xmlns:svg="http://www.w3.org/2000/svg"
   xmlns="http://www.w3.org/2000/svg"
   xmlns:sodipodi="http://sodipodi.sourceforge.net/DTD/sodipodi-0.dtd"
   xmlns:inkscape="http://www.inkscape.org/namespaces/inkscape"
   version="1.0"
   width="800"
   height="800"
   id="windrose"
   sodipodi:version="0.32"
   inkscape:version="0.48.4 r9939"
   sodipodi:docname="rose.svg"
   inkscape:output_extension="org.inkscape.output.svg.inkscape">
  <metadata
     id="metadata124">
    <rdf:RDF>
      <cc:Work
         rdf:about="">
        <dc:format>image/svg+xml</dc:format>
        <dc:type
           rdf:resource="http://purl.org/dc/dcmitype/StillImage" />
      </cc:Work>
    </rdf:RDF>
  </metadata>
  <sodipodi:namedview
     inkscape:window-height="725"
     inkscape:window-width="1360"
     inkscape:pageshadow="2"
     inkscape:pageopacity="0.0"
     guidetolerance="10.0"
     gridtolerance="10.0"
     objecttolerance="10.0"
     borderopacity="1.0"
     bordercolor="#666666"
     pagecolor="#ffffff"
     id="base"
     inkscape:zoom="0.9425"
     inkscape:cx="312.46684"
     inkscape:cy="392.04244"
     inkscape:window-x="0"
     inkscape:window-y="25"
     inkscape:current-layer="g4440"
     showgrid="false"
     inkscape:window-maximized="1" />
  <defs
     id="defs4" />
  <g
     id="g4440">
    <path
       d="m 700,400 a 300,300 0 0 1 -600,0 300,300 0 1 1 600,0 z"
       style="fill:none;stroke:#000000"
       id="kreis"
       inkscape:connector-curvature="0" />
    <path
       d="m 612,188 28,-28"
       style="fill:none;stroke:#000000;stroke-width:2"
       id="linie045"
       inkscape:connector-curvature="0" />
    <path
       d="m 740,400 -40,0"
       style="fill:none;stroke:#000000;stroke-width:2"
       id="linie090"
       inkscape:connector-curvature="0" />
    <path
       d="m 612,612 28,28"
       style="fill:none;stroke:#000000;stroke-width:2"
       id="linie135"
       inkscape:connector-curvature="0" />
    <path
       d="m 400,740 0,-40"
       style="fill:none;stroke:#000000;stroke-width:2"
       id="linie180"
       inkscape:connector-curvature="0" />
    <path
       d="m 188,612 -28,28"
       style="fill:none;stroke:#000000;stroke-width:2"
       id="linie225"
       inkscape:connector-curvature="0" />
    <path
       d="m 60,400 40,0"
       style="fill:none;stroke:#000000;stroke-width:2"
       id="linie270"
       inkscape:connector-curvature="0" />
    <path
       d="M 188,188 160,160"
       style="fill:none;stroke:#000000;stroke-width:2"
       id="linie315"
       inkscape:connector-curvature="0" />
    <path
       d="m 400,60 0,40"
       style="fill:none;stroke:#000000;stroke-width:2"
       id="linie360"
       inkscape:connector-curvature="0" />
    <path
       d="m 426,101 2,-20"
       style="fill:none;stroke:#000000;stroke-width:1;stroke-opacity:1"
       id="linie005"
       inkscape:connector-curvature="0" />
    <path
       d="m 452,105 4,-20"
       style="fill:none;stroke:#000000;stroke-width:1;stroke-opacity:1"
       id="linie010"
       inkscape:connector-curvature="0" />
    <path
       d="m 478,110 5,-19"
       style="fill:none;stroke:#000000;stroke-width:1;stroke-opacity:1"
       id="linie015"
       inkscape:connector-curvature="0" />
    <path
       d="m 503,118 6,-19"
       style="fill:none;stroke:#000000;stroke-width:1;stroke-opacity:1"
       id="linie020"
       inkscape:connector-curvature="0" />
    <path
       d="m 527,128 8,-18"
       style="fill:none;stroke:#000000;stroke-width:1;stroke-opacity:1"
       id="linie025"
       inkscape:connector-curvature="0" />
    <path
       d="m 550,140 10,-17"
       style="fill:none;stroke:#000000;stroke-width:1;stroke-opacity:1"
       id="linie030"
       inkscape:connector-curvature="0" />
    <path
       d="m 572,154 12,-16"
       style="fill:none;stroke:#000000;stroke-width:1;stroke-opacity:1"
       id="linie035"
       inkscape:connector-curvature="0" />
    <path
       d="m 593,170 13,-15"
       style="fill:none;stroke:#000000;stroke-width:1;stroke-opacity:1"
       id="linie040"
       inkscape:connector-curvature="0" />
    <path
       d="m 630,207 15,-13"
       style="fill:none;stroke:#000000;stroke-width:1;stroke-opacity:1"
       id="linie050"
       inkscape:connector-curvature="0" />
    <path
       d="m 646,228 16,-12"
       style="fill:none;stroke:#000000;stroke-width:1;stroke-opacity:1"
       id="linie055"
       inkscape:connector-curvature="0" />
    <path
       d="m 660,250 17,-10"
       style="fill:none;stroke:#000000;stroke-width:1;stroke-opacity:1"
       id="linie060"
       inkscape:connector-curvature="0" />
    <path
       d="m 672,273 18,-8"
       style="fill:none;stroke:#000000;stroke-width:1;stroke-opacity:1"
       id="linie065"
       inkscape:connector-curvature="0" />
    <path
       d="m 682,297 19,-6"
       style="fill:none;stroke:#000000;stroke-width:1;stroke-opacity:1"
       id="linie070"
       inkscape:connector-curvature="0" />
    <path
       d="m 690,322 19,-5"
       style="fill:none;stroke:#000000;stroke-width:1;stroke-opacity:1"
       id="linie075"
       inkscape:connector-curvature="0" />
    <path
       d="m 695,348 20,-4"
       style="fill:none;stroke:#000000;stroke-width:1;stroke-opacity:1"
       id="linie080"
       inkscape:connector-curvature="0" />
    <path
       d="m 699,374 20,-2"
       style="fill:none;stroke:#000000;stroke-width:1;stroke-opacity:1"
       id="linie085"
       inkscape:connector-curvature="0" />
    <path
       d="m 699,426 20,2"
       style="fill:none;stroke:#000000;stroke-width:1;stroke-opacity:1"
       id="linie095"
       inkscape:connector-curvature="0" />
    <path
       d="m 695,452 20,4"
       style="fill:none;stroke:#000000;stroke-width:1;stroke-opacity:1"
       id="linie100"
       inkscape:connector-curvature="0" />
    <path
       d="m 690,478 19,5"
       style="fill:none;stroke:#000000;stroke-width:1;stroke-opacity:1"
       id="linie105"
       inkscape:connector-curvature="0" />
    <path
       d="m 682,503 19,6"
       style="fill:none;stroke:#000000;stroke-width:1;stroke-opacity:1"
       id="linie110"
       inkscape:connector-curvature="0" />
    <path
       d="m 672,527 18,8"
       style="fill:none;stroke:#000000;stroke-width:1;stroke-opacity:1"
       id="linie115"
       inkscape:connector-curvature="0" />
    <path
       d="m 660,550 17,10"
       style="fill:none;stroke:#000000;stroke-width:1;stroke-opacity:1"
       id="linie120"
       inkscape:connector-curvature="0" />
    <path
       d="m 646,572 16,12"
       style="fill:none;stroke:#000000;stroke-width:1;stroke-opacity:1"
       id="linie125"
       inkscape:connector-curvature="0" />
    <path
       d="m 630,593 15,13"
       style="fill:none;stroke:#000000;stroke-width:1;stroke-opacity:1"
       id="linie130"
       inkscape:connector-curvature="0" />
    <path
       d="m 593,630 13,15"
       style="fill:none;stroke:#000000;stroke-width:1;stroke-opacity:1"
       id="linie140"
       inkscape:connector-curvature="0" />
    <path
       d="m 572,646 12,16"
       style="fill:none;stroke:#000000;stroke-width:1;stroke-opacity:1"
       id="linie145"
       inkscape:connector-curvature="0" />
    <path
       d="m 550,660 10,17"
       style="fill:none;stroke:#000000;stroke-width:1;stroke-opacity:1"
       id="linie150"
       inkscape:connector-curvature="0" />
    <path
       d="m 527,672 8,18"
       style="fill:none;stroke:#000000;stroke-width:1;stroke-opacity:1"
       id="linie155"
       inkscape:connector-curvature="0" />
    <path
       d="m 503,682 6,19"
       style="fill:none;stroke:#000000;stroke-width:1;stroke-opacity:1"
       id="linie160"
       inkscape:connector-curvature="0" />
    <path
       d="m 478,690 5,19"
       style="fill:none;stroke:#000000;stroke-width:1;stroke-opacity:1"
       id="linie165"
       inkscape:connector-curvature="0" />
    <path
       d="m 452,695 4,20"
       style="fill:none;stroke:#000000;stroke-width:1;stroke-opacity:1"
       id="linie170"
       inkscape:connector-curvature="0" />
    <path
       d="m 426,699 2,20"
       style="fill:none;stroke:#000000;stroke-width:1;stroke-opacity:1"
       id="linie175"
       inkscape:connector-curvature="0" />
    <path
       d="m 374,699 -2,20"
       style="fill:none;stroke:#000000;stroke-width:1;stroke-opacity:1"
       id="linie185"
       inkscape:connector-curvature="0" />
    <path
       d="m 348,695 -4,20"
       style="fill:none;stroke:#000000;stroke-width:1;stroke-opacity:1"
       id="linie190"
       inkscape:connector-curvature="0" />
    <path
       d="m 322,690 -5,19"
       style="fill:none;stroke:#000000;stroke-width:1;stroke-opacity:1"
       id="linie195"
       inkscape:connector-curvature="0" />
    <path
       d="m 297,682 -6,19"
       style="fill:none;stroke:#000000;stroke-width:1;stroke-opacity:1"
       id="linie200"
       inkscape:connector-curvature="0" />
    <path
       d="m 273,672 -8,18"
       style="fill:none;stroke:#000000;stroke-width:1;stroke-opacity:1"
       id="linie205"
       inkscape:connector-curvature="0" />
    <path
       d="m 250,660 -10,17"
       style="fill:none;stroke:#000000;stroke-width:1;stroke-opacity:1"
       id="linie210"
       inkscape:connector-curvature="0" />
    <path
       d="m 228,646 -12,16"
       style="fill:none;stroke:#000000;stroke-width:1;stroke-opacity:1"
       id="linie215"
       inkscape:connector-curvature="0" />
    <path
       d="m 207,630 -13,15"
       style="fill:none;stroke:#000000;stroke-width:1;stroke-opacity:1"
       id="linie220"
       inkscape:connector-curvature="0" />
    <path
       d="m 170,593 -15,13"
       style="fill:none;stroke:#000000;stroke-width:1;stroke-opacity:1"
       id="linie230"
       inkscape:connector-curvature="0" />
    <path
       d="m 154,572 -16,12"
       style="fill:none;stroke:#000000;stroke-width:1;stroke-opacity:1"
       id="linie235"
       inkscape:connector-curvature="0" />
    <path
       d="m 140,550 -17,10"
       style="fill:none;stroke:#000000;stroke-width:1;stroke-opacity:1"
       id="linie240"
       inkscape:connector-curvature="0" />
    <path
       d="m 128,527 -18,8"
       style="fill:none;stroke:#000000;stroke-width:1;stroke-opacity:1"
       id="linie245"
       inkscape:connector-curvature="0" />
    <path
       d="m 118,503 -19,6"
       style="fill:none;stroke:#000000;stroke-width:1;stroke-opacity:1"
       id="linie250"
       inkscape:connector-curvature="0" />
    <path
       d="m 110,478 -19,5"
       style="fill:none;stroke:#000000;stroke-width:1;stroke-opacity:1"
       id="linie255"
       inkscape:connector-curvature="0" />
    <path
       d="m 105,452 -20,4"
       style="fill:none;stroke:#000000;stroke-width:1;stroke-opacity:1"
       id="linie260"
       inkscape:connector-curvature="0" />
    <path
       d="m 101,426 -20,2"
       style="fill:none;stroke:#000000;stroke-width:1;stroke-opacity:1"
       id="linie265"
       inkscape:connector-curvature="0" />
    <path
       d="M 101,374 81,372"
       style="fill:none;stroke:#000000;stroke-width:1;stroke-opacity:1"
       id="linie275"
       inkscape:connector-curvature="0" />
    <path
       d="M 105,348 85,344"
       style="fill:none;stroke:#000000;stroke-width:1;stroke-opacity:1"
       id="linie280"
       inkscape:connector-curvature="0" />
    <path
       d="M 110,322 91,317"
       style="fill:none;stroke:#000000;stroke-width:1;stroke-opacity:1"
       id="linie285"
       inkscape:connector-curvature="0" />
    <path
       d="M 118,297 99,291"
       style="fill:none;stroke:#000000;stroke-width:1;stroke-opacity:1"
       id="linie290"
       inkscape:connector-curvature="0" />
    <path
       d="m 128,273 -18,-8"
       style="fill:none;stroke:#000000;stroke-width:1;stroke-opacity:1"
       id="linie295"
       inkscape:connector-curvature="0" />
    <path
       d="M 140,250 123,240"
       style="fill:none;stroke:#000000;stroke-width:1;stroke-opacity:1"
       id="linie300"
       inkscape:connector-curvature="0" />
    <path
       d="M 154,228 138,216"
       style="fill:none;stroke:#000000;stroke-width:1;stroke-opacity:1"
       id="linie305"
       inkscape:connector-curvature="0" />
    <path
       d="M 170,207 155,194"
       style="fill:none;stroke:#000000;stroke-width:1;stroke-opacity:1"
       id="linie310"
       inkscape:connector-curvature="0" />
    <path
       d="M 207,170 194,155"
       style="fill:none;stroke:#000000;stroke-width:1;stroke-opacity:1"
       id="linie320"
       inkscape:connector-curvature="0" />
    <path
       d="M 228,154 216,138"
       style="fill:none;stroke:#000000;stroke-width:1;stroke-opacity:1"
       id="linie325"
       inkscape:connector-curvature="0" />
    <path
       d="M 250,140 240,123"
       style="fill:none;stroke:#000000;stroke-width:1;stroke-opacity:1"
       id="linie330"
       inkscape:connector-curvature="0" />
    <path
       d="m 273,128 -8,-18"
       style="fill:none;stroke:#000000;stroke-width:1;stroke-opacity:1"
       id="linie335"
       inkscape:connector-curvature="0" />
    <path
       d="M 297,118 291,99"
       style="fill:none;stroke:#000000;stroke-width:1;stroke-opacity:1"
       id="linie340"
       inkscape:connector-curvature="0" />
    <path
       d="M 322,110 317,91"
       style="fill:none;stroke:#000000;stroke-width:1;stroke-opacity:1"
       id="linie345"
       inkscape:connector-curvature="0" />
    <path
       d="M 348,105 344,85"
       style="fill:none;stroke:#000000;stroke-width:1;stroke-opacity:1"
       id="linie350"
       inkscape:connector-curvature="0" />
    <path
       d="M 374,101 372,81"
       style="fill:none;stroke:#000000;stroke-width:1;stroke-opacity:1"
       id="linie355"
       inkscape:connector-curvature="0" />
    <path
       d="m 400,400 -65,0 -90,-155 155,155 z"
       style="fill:#8385f7;fill-opacity:1;stroke:#8385f7;stroke-width:1;stroke-opacity:1"
       id="pfeil-linksoben-links"
       inkscape:connector-curvature="0" />
    <path
       d="m 400,400 0,-65 155,-90 -155,155 z"
       style="fill:#8385f7;fill-opacity:1;stroke:#8385f7;stroke-width:1;stroke-opacity:1"
       id="pfeil-rechtsoben-oben"
       inkscape:connector-curvature="0" />
    <path
       d="m 400,400 65,0 90,-155 -155,155 z"
       style="fill:#ffffff;fill-rule:evenodd;stroke:#8385f7;stroke-width:1px;stroke-linecap:butt;stroke-linejoin:miter;stroke-opacity:1"
       id="pfeil-rechtsoben-rechts"
       inkscape:connector-curvature="0" />
    <path
       d="m 400,400 65,0 90,155 -155,-155 z"
       style="fill:#8385f7;fill-opacity:1;stroke:#8385f7;stroke-width:1;stroke-opacity:1"
       id="pfeil-rechtsunten-rechts"
       inkscape:connector-curvature="0" />
    <path
       d="m 400,400 0,65 155,90 -155,-155 z"
       style="fill:#ffffff;stroke:#8385f7;stroke-width:1;stroke-opacity:1"
       id="pfeil-rechtsunten-unten"
       inkscape:connector-curvature="0" />
    <path
       d="m 400,400 0,65 -155,90 155,-155 z"
       style="fill:#8385f7;fill-opacity:1;stroke:#8385f7;stroke-width:1;stroke-opacity:1"
       id="pfeil-linksunten-unten"
       inkscape:connector-curvature="0" />
    <path
       d="m 400,400 -65,0 -90,155 155,-155 z"
       style="fill:#ffffff;stroke:#8385f7;stroke-width:1;stroke-opacity:1"
       id="pfeil-linksunten-links"
       inkscape:connector-curvature="0" />
    <path
       d="m 400,400 0,-65 -155,-90 155,155 z"
       style="fill:#ffffff;fill-opacity:0;stroke:#70c8f7;stroke-width:1;stroke-opacity:1"
       id="pfeil-linksoben-oben"
       inkscape:connector-curvature="0" />
    <path
       d="m 400,100 -45,255 45,45 0,-300 z"
       style="fill:#8385f7;fill-opacity:1;stroke:#8385f7;stroke-width:1;stroke-opacity:1"
       id="pfeil-oben-links"
       inkscape:connector-curvature="0" />
    <path
       d="m 400,100 45,255 -45,45 0,-300 z"
       style="fill:#ffffff;stroke:#8385f7;stroke-width:1;stroke-opacity:1"
       id="pfeil-oben-rechts"
       inkscape:connector-curvature="0" />
    <path
       d="m 700,400 -255,-45 -45,45 300,0 z"
       style="fill:#8385f7;fill-opacity:1;stroke:#8385f7;stroke-width:1;stroke-opacity:1"
       id="pfeil-rechts-oben"
       inkscape:connector-curvature="0" />
    <path
       d="m 700,400 -255,45 -45,-45 300,0 z"
       style="fill:#ffffff;stroke:#8385f7;stroke-width:1;stroke-opacity:1"
       id="pfeil-rechts-unten"
       inkscape:connector-curvature="0" />
    <path
       d="m 400,700 45,-255 -45,-45 0,300 z"
       style="fill:#8385f7;fill-opacity:1;stroke:#8385f7;stroke-width:1;stroke-opacity:1"
       id="pfeil-unten-rechts"
       inkscape:connector-curvature="0" />
    <path
       d="m 400,700 -45,-255 45,-45 0,300 z"
       style="fill:#ffffff;stroke:#8385f7;stroke-width:1;stroke-opacity:1"
       id="pfeil-unten-links"
       inkscape:connector-curvature="0" />
    <path
       d="m 100,400 255,45 45,-45 -300,0 z"
       style="fill:#8385f7;fill-opacity:1;stroke:#8385f7;stroke-width:1;stroke-opacity:1"
       id="pfeil-links-unten"
       inkscape:connector-curvature="0" />
    <path
       d="m 100,400 255,-45 45,45 -300,0 z"
       style="fill:#ffffff;stroke:#8385f7;stroke-width:1;stroke-opacity:1"
       id="pfeil-links-oben"
       inkscape:connector-curvature="0" />
    <path
       d="m 424.78125,166.3125 5.125,30.875 c 33.24974,4.86578 63.90149,17.72876 89.96875,36.5625 l 25.21875,-18.5625 c -33.85398,-26.6192 -75.18503,-44.14017 -120.3125,-48.875 z m -52.875,0.375 C 326.92279,172.05589 285.8137,190.13949 252.3125,217.25 l 25.46875,18.21875 c 25.81448,-19.21284 56.2745,-32.5081 89.40625,-37.84375 l 4.71875,-30.9375 z m 210.84375,85.625 -18.21875,25.46875 c 19.21284,25.81448 32.5081,56.2745 37.84375,89.40625 l 30.9375,4.71875 C 627.94411,326.92279 609.86051,285.8137 582.75,252.3125 z m -367.5625,2.59375 c -26.6192,33.85398 -44.14017,75.18503 -48.875,120.3125 l 30.875,-5.125 c 4.86578,-33.24974 17.72876,-63.90149 36.5625,-89.96875 l -18.5625,-25.21875 z m 418.5,169.875 -30.875,5.125 c -4.86578,33.24974 -17.72876,63.90149 -36.5625,89.96875 l 18.5625,25.21875 c 26.6192,-33.85398 44.14017,-75.18503 48.875,-120.3125 z m -467,3.3125 c 5.36839,44.98346 23.45199,86.09255 50.5625,119.59375 l 18.21875,-25.46875 C 216.25591,496.40427 202.96065,465.94425 197.625,432.8125 l -30.9375,-4.71875 z m 355.53125,136.4375 c -25.81448,19.21284 -56.2745,32.5081 -89.40625,37.84375 l -4.71875,30.9375 C 473.07721,627.94411 514.1863,609.86051 547.6875,582.75 L 522.21875,564.53125 z M 280.125,566.25 254.90625,584.8125 c 33.85398,26.6192 75.18503,44.14017 120.3125,48.875 l -5.125,-30.875 C 336.84401,597.94672 306.19226,585.08374 280.125,566.25 z"
       style="fill:#ffb81c;fill-opacity:1;stroke:none"
       id="kreisinnen"
       inkscape:connector-curvature="0" />
    <g
       id="g4413">
      <g
         id="beschriftungsebene">
        <text
           x="0"
           y="0"
           transform="translate(400,20)"
           style="font-size:18px;text-align:center;text-anchor:middle;fill:#000000;stroke:none;font-family:Sans"
           id="Text-Nord"
           xml:space="preserve"><tspan
             x="0"
             y="0"
             id="tspan2318">N</tspan><tspan
             x="0"
             y="22.5"
             id="tspan2320">360°</tspan></text>
        <text
           x="0"
           y="0"
           transform="matrix(0.7071068,0.7071068,-0.7071068,0.7071068,669,131)"
           style="font-size:18px;text-align:center;text-anchor:middle;fill:#000000;stroke:none;font-family:Sans"
           id="Text-Nordost"
           xml:space="preserve"><tspan
             x="0"
             y="0"
             id="tspan2327">NO</tspan><tspan
             x="0"
             y="22.5"
             id="tspan2329">045°</tspan></text>
        <text
           x="0"
           y="0"
           transform="matrix(0,1,-1,0,780,400)"
           style="font-size:18px;text-align:center;text-anchor:middle;fill:#000000;stroke:none;font-family:Sans"
           id="Text-Ost"
           xml:space="preserve"><tspan
             x="0"
             y="0"
             id="tspan3204">O</tspan><tspan
             x="0"
             y="22.5"
             id="tspan3206">090°</tspan></text>
        <text
           x="0"
           y="0"
           transform="matrix(-0.7071068,0.7071068,-0.7071068,-0.7071068,669,669)"
           style="font-size:18px;text-align:center;text-anchor:middle;fill:#000000;stroke:none;font-family:Sans"
           id="Text-Südost"
           xml:space="preserve"><tspan
             x="0"
             y="0"
             id="tspan3218">SO</tspan><tspan
             x="0"
             y="22.5"
             id="tspan3220">135°</tspan></text>
        <text
           x="0"
           y="0"
           transform="matrix(-1,0,0,-1,400,780)"
           style="font-size:18px;text-align:center;text-anchor:middle;fill:#000000;stroke:none;font-family:Sans"
           id="Text-Süd"
           xml:space="preserve"><tspan
             x="0"
             y="0"
             id="tspan3212">S</tspan><tspan
             x="0"
             y="22.5"
             id="tspan3214">180°</tspan></text>
        <text
           x="0"
           y="0"
           transform="matrix(-0.7071068,-0.7071068,0.7071068,-0.7071068,131,669)"
           style="font-size:18px;text-align:center;text-anchor:middle;fill:#000000;stroke:none;font-family:Sans"
           id="Text-Südwest"
           xml:space="preserve"><tspan
             x="0"
             y="0"
             id="tspan3224">SW</tspan><tspan
             x="0"
             y="22.5"
             id="tspan3226">225°</tspan></text>
        <text
           x="0"
           y="0"
           transform="matrix(0,-1,1,0,20,400)"
           style="font-size:18px;text-align:center;text-anchor:middle;fill:#000000;stroke:none;font-family:Sans"
           id="Test-West"
           xml:space="preserve"><tspan
             x="0"
             y="0"
             id="tspan3230">W</tspan><tspan
             x="0"
             y="22.5"
             id="tspan3232">270°</tspan></text>
        <text
           x="0"
           y="0"
           transform="matrix(0.7071068,-0.7071068,0.7071068,0.7071068,131,131)"
           style="font-size:18px;text-align:center;text-anchor:middle;fill:#000000;stroke:none;font-family:Sans"
           id="Text-Nordwest"
           xml:space="preserve"><tspan
             x="0"
             y="0"
             id="tspan3236">NW</tspan><tspan
             x="0"
             y="22.5"
             id="tspan3238">315°</tspan></text>
      </g>
    </g>
  </g>
</svg>
